<svg width="40" height="40" viewBox="0 0 40 40" fill="none" xmlns="http://www.w3.org/2000/svg">
<path d="M3.33331 15.8334C3.33335 13.9787 3.89597 12.1677 4.94687 10.6395C5.99777 9.11127 7.48751 7.93779 9.21933 7.27403C10.9511 6.61026 12.8436 6.48743 14.6467 6.92177C16.4498 7.3561 18.0787 8.32716 19.3183 9.70669C19.4056 9.80005 19.5112 9.87448 19.6284 9.92536C19.7457 9.97624 19.8722 10.0025 20 10.0025C20.1278 10.0025 20.2543 9.97624 20.3715 9.92536C20.4888 9.87448 20.5943 9.80005 20.6816 9.70669C21.9174 8.31819 23.5467 7.33897 25.3527 6.89936C27.1587 6.45975 29.0558 6.5806 30.7914 7.24583C32.5271 7.91106 34.019 9.08911 35.0685 10.6232C36.1181 12.1573 36.6755 13.9746 36.6666 15.8334C36.6666 19.65 34.1666 22.5 31.6666 25L22.5133 33.855C22.2028 34.2117 21.8199 34.4982 21.3901 34.6955C20.9603 34.8928 20.4934 34.9964 20.0205 34.9994C19.5475 35.0024 19.0794 34.9048 18.6471 34.7129C18.2149 34.521 17.8284 34.2394 17.5133 33.8867L8.33331 25C5.83331 22.5 3.33331 19.6667 3.33331 15.8334Z" stroke="#F5A623" stroke-width="3.33333" stroke-linecap="round" stroke-linejoin="round"/>
</svg>
