<svg width="40" height="40" viewBox="0 0 40 40" fill="none" xmlns="http://www.w3.org/2000/svg">
<path d="M27.0667 12.9333L24.06 21.9517C23.8964 22.4427 23.6207 22.8888 23.2547 23.2547C22.8888 23.6207 22.4427 23.8964 21.9517 24.06L12.9333 27.0667L15.94 18.0483C16.1037 17.5574 16.3794 17.1113 16.7453 16.7453C17.1113 16.3794 17.5574 16.1037 18.0483 15.94L27.0667 12.9333Z" stroke="#F5A623" stroke-width="3.33333" stroke-linecap="round" stroke-linejoin="round"/>
<path d="M20 36.6667C29.2047 36.6667 36.6666 29.2048 36.6666 20C36.6666 10.7953 29.2047 3.33337 20 3.33337C10.7952 3.33337 3.33331 10.7953 3.33331 20C3.33331 29.2048 10.7952 36.6667 20 36.6667Z" stroke="#F5A623" stroke-width="3.33333" stroke-linecap="round" stroke-linejoin="round"/>
</svg>
