<?xml version="1.0" encoding="UTF-8"?>
<svg id="Calque_1" data-name="Calque 1" xmlns="http://www.w3.org/2000/svg" viewBox="0 0 321.84 177.69">
  <defs>
    <style>
      .cls-1 {
        fill: #4473c5;
      }
    </style>
  </defs>
  <polygon class="cls-1" points="227.58 65.28 91.21 65.28 59.95 26.57 22.05 65.28 0 65.28 64.09 0 227.58 65.28"/>
  <polygon class="cls-1" points="0 156.62 0 177.69 321.84 163.16 321.84 156.62 0 156.62"/>
  <rect class="cls-1" x="56.76" y="129.58" width="14.81" height="14.81"/>
  <rect class="cls-1" x="134.77" y="129.58" width="14.81" height="14.81"/>
  <rect class="cls-1" x="212.77" y="129.58" width="14.81" height="14.81"/>
  <path class="cls-1" d="M29.39,144.38H0v-63.09h28.4c12.85,0,20.49,6.38,20.49,16.36,0,7.64-4.58,12.58-10.7,14.38,7.37,1.53,12.13,8,12.13,15.19,0,10.43-7.64,17.17-20.94,17.17ZM25.43,93.6h-10.07v13.21h10.07c5.03,0,7.82-2.25,7.82-6.56s-2.79-6.65-7.82-6.65ZM26.51,118.05h-11.14v13.93h11.32c5.12,0,8.09-2.34,8.09-6.83s-3.15-7.1-8.27-7.1Z"/>
  <path class="cls-1" d="M78.77,81.29h48.8v12.31h-16.72v50.78h-15.37v-50.78h-16.72v-12.31Z"/>
  <path class="cls-1" d="M156.77,81.29h48.8v12.31h-16.72v50.78h-15.37v-50.78h-16.72v-12.31Z"/>
</svg>